<?xml version="1.0" encoding="UTF-8" standalone="no"?>
<svg
   xmlns:dc="http://purl.org/dc/elements/1.1/"
   xmlns:cc="http://creativecommons.org/ns#"
   xmlns:rdf="http://www.w3.org/1999/02/22-rdf-syntax-ns#"
   xmlns:svg="http://www.w3.org/2000/svg"
   xmlns="http://www.w3.org/2000/svg"
   id="svg5446"
   version="1.1"
   viewBox="0 0 26.458333 26.458334"
   height="100"
   width="100">
  <defs
     id="defs5440" />
  <metadata
     id="metadata5443">
    <rdf:RDF>
      <cc:Work
         rdf:about="">
        <dc:format>image/svg+xml</dc:format>
        <dc:type
           rdf:resource="http://purl.org/dc/dcmitype/StillImage" />
        <dc:title></dc:title>
      </cc:Work>
    </rdf:RDF>
  </metadata>
  <g
     transform="translate(0,-270.54165)"
     id="layer1">
    <g
       id="g5002"
       transform="matrix(0.35295974,0,0,-0.35295974,-14.751872,379.78762)">
      <path
         id="path90"
         style="fill:#f9b03f;fill-opacity:1;fill-rule:nonzero;stroke:none;stroke-width:0.1"
         d="M 106,240 H 74 v 19 h 32 v -19" />
      <path
         id="path92"
         style="fill:#ffffff;fill-opacity:1;fill-rule:nonzero;stroke:none;stroke-width:0.1"
         d="M 106,259 H 74 v 43 h 32 v -43" />
      <path
         id="path94"
         style="fill:#22bea1;fill-opacity:1;fill-rule:nonzero;stroke:none;stroke-width:0.1"
         d="M 105,284 H 74 v 18 h 31 v -18" />
      <path
         id="path96"
         style="fill:#464a4d;fill-opacity:1;fill-rule:nonzero;stroke:none;stroke-width:0.1"
         d="M 106,239 H 74 c -0.5523,0 -1,0.447 -1,1 v 5 h 2 v -4 h 30 v 60 H 75 v -4 h -2 v 5 c 0,0.553 0.4477,1 1,1 h 32 c 0.552,0 1,-0.447 1,-1 v -62 c 0,-0.553 -0.448,-1 -1,-1" />
      <path
         id="path98"
         style="fill:#464a4d;fill-opacity:1;fill-rule:nonzero;stroke:none;stroke-width:0.1"
         d="m 103,258 h -4 v 2 h 4 v -2" />
      <path
         id="path100"
         style="fill:#464a4d;fill-opacity:1;fill-rule:nonzero;stroke:none;stroke-width:0.1"
         d="m 97,258 h -4 v 2 h 4 v -2" />
      <path
         id="path102"
         style="fill:#464a4d;fill-opacity:1;fill-rule:nonzero;stroke:none;stroke-width:0.1"
         d="m 91,258 h -5 v 2 h 5 v -2" />
      <path
         id="path104"
         style="fill:#464a4d;fill-opacity:1;fill-rule:nonzero;stroke:none;stroke-width:0.1"
         d="m 99,245 h -2 v 9 h 2 v -9" />
      <path
         id="path106"
         style="fill:#464a4d;fill-opacity:1;fill-rule:nonzero;stroke:none;stroke-width:0.1"
         d="m 95,245 h -2 v 9 h 2 v -9" />
      <path
         id="path108"
         style="fill:#464a4d;fill-opacity:1;fill-rule:nonzero;stroke:none;stroke-width:0.1"
         d="m 97,289 h -2 v 10 h 2 v -10" />
      <path
         id="path110"
         style="fill:#464a4d;fill-opacity:1;fill-rule:nonzero;stroke:none;stroke-width:0.1"
         d="m 97.293,287.293 -1.293,1.293 -1.293,-1.293 -1.414,1.414 2,2 c 0.3906,0.391 1.0234,0.391 1.414,0 l 2,-2 -1.414,-1.414" />
      <path
         id="path112"
         style="fill:#464a4d;fill-opacity:1;fill-rule:nonzero;stroke:none;stroke-width:0.1"
         d="m 100.485,291.143 -4.485,2.691 -4.4855,-2.691 -1.029,1.714 5,3 c 0.3172,0.19 0.7118,0.19 1.029,0 l 5.0005,-3 -1.03,-1.714" />
      <path
         id="path114"
         style="fill:#464a4d;fill-opacity:1;fill-rule:nonzero;stroke:none;stroke-width:0.1"
         d="m 81,240 h -2 v 5 h 2 v -5" />
      <path
         id="path116"
         style="fill:#464a4d;fill-opacity:1;fill-rule:nonzero;stroke:none;stroke-width:0.1"
         d="m 97,280 h -6 v 2 h 6 v -2" />
      <path
         id="path118"
         style="fill:#464a4d;fill-opacity:1;fill-rule:nonzero;stroke:none;stroke-width:0.1"
         d="m 97,275 h -6 v 2 h 6 v -2" />
      <path
         id="path120"
         style="fill:#464a4d;fill-opacity:1;fill-rule:nonzero;stroke:none;stroke-width:0.1"
         d="M 101,271 H 91 v 2 h 10 v -2" />
      <path
         id="path122"
         style="fill:#464a4d;fill-opacity:1;fill-rule:nonzero;stroke:none;stroke-width:0.1"
         d="M 101,267 H 91 v 2 h 10 v -2" />
      <path
         id="path124"
         style="fill:#464a4d;fill-opacity:1;fill-rule:nonzero;stroke:none;stroke-width:0.1"
         d="m 101,277 h -2 v 3 h 2 v -3" />
      <path
         id="path126"
         style="fill:#464a4d;fill-opacity:1;fill-rule:nonzero;stroke:none;stroke-width:0.1"
         d="m 97.3164,275.052 -0.6328,1.896 3,1 0.6324,-1.896 -2.9996,-1" />
      <path
         id="path128"
         style="fill:#464a4d;fill-opacity:1;fill-rule:nonzero;stroke:none;stroke-width:0.1"
         d="m 99.6836,279.052 -3,1 0.6328,1.896 2.9996,-1 -0.6324,-1.896" />
      <path
         id="path130"
         style="fill:#464a4d;fill-opacity:1;fill-rule:nonzero;stroke:none;stroke-width:0.1"
         d="m 95,277 h -2 v 3 h 2 v -3" />
      <path
         id="path132"
         style="fill:#464a4d;fill-opacity:1;fill-rule:nonzero;stroke:none;stroke-width:0.1"
         d="m 97,262 c -2.2055,0 -4,1.794 -4,4 h 2 c 0,-1.103 0.8969,-2 2,-2 1.1031,0 2,0.897 2,2 h 2 c 0,-2.206 -1.7945,-4 -4,-4" />
      <path
         id="path134"
         style="fill:#464a4d;fill-opacity:1;fill-rule:nonzero;stroke:none;stroke-width:0.1"
         d="m 91.707,262.293 -1.414,1.414 3,3 1.414,-1.414 -3,-3" />
      <path
         id="path136"
         style="fill:#464a4d;fill-opacity:1;fill-rule:nonzero;stroke:none;stroke-width:0.1"
         d="m 101,266 h -2 v 2 h 2 v -2" />
      <path
         id="path138"
         style="fill:#464a4d;fill-opacity:1;fill-rule:nonzero;stroke:none;stroke-width:0.1"
         d="m 95,266 h -2 v 2 h 2 v -2" />
      <path
         id="path140"
         style="fill:#ffffff;fill-opacity:1;fill-rule:nonzero;stroke:none;stroke-width:0.1"
         d="M 84,248 H 52 v 46 h 32 c 1.1047,0 2,-0.896 2,-2 v -42 c 0,-1.104 -0.8953,-2 -2,-2" />
      <path
         id="path142"
         style="fill:#464a4d;fill-opacity:1;fill-rule:nonzero;stroke:none;stroke-width:0.1"
         d="m 53,249 h 31 c 0.5512,0 1,0.448 1,1 v 42 c 0,0.552 -0.4488,1 -1,1 H 53 Z m 31,-2 H 52 c -0.5523,0 -1,0.447 -1,1 v 46 c 0,0.553 0.4477,1 1,1 h 32 c 1.6543,0 3,-1.346 3,-3 v -42 c 0,-1.654 -1.3457,-3 -3,-3" />
      <path
         id="path144"
         style="fill:#22bea1;fill-opacity:1;fill-rule:nonzero;stroke:none;stroke-width:0.1"
         d="m 80,276 c 0,-6.075 -4.9246,-11 -11,-11 -6.0754,0 -11,4.925 -11,11 0,6.075 4.9246,11 11,11 6.0754,0 11,-4.925 11,-11" />
      <path
         id="path146"
         style="fill:#464a4d;fill-opacity:1;fill-rule:nonzero;stroke:none;stroke-width:0.1"
         d="m 69,286 c -5.5141,0 -10,-4.486 -10,-10 0,-5.514 4.4859,-10 10,-10 5.5141,0 10,4.486 10,10 0,5.514 -4.4859,10 -10,10 z m 0,-22 c -6.6168,0 -12,5.383 -12,12 0,6.617 5.3832,12 12,12 6.6168,0 12,-5.383 12,-12 0,-6.617 -5.3832,-12 -12,-12" />
      <path
         id="path148"
         style="fill:#464a4d;fill-opacity:1;fill-rule:nonzero;stroke:none;stroke-width:0.1"
         d="m 69,286 c -1.1715,0 -5,-4.262 -5,-10 0,-5.738 3.8285,-10 5,-10 1.1715,0 5,4.262 5,10 0,5.738 -3.8285,10 -5,10 z m 0,-22 c -2.7004,0 -7,5.492 -7,12 0,6.508 4.2996,12 7,12 2.7004,0 7,-5.492 7,-12 0,-6.508 -4.2996,-12 -7,-12" />
      <path
         id="path150"
         style="fill:#464a4d;fill-opacity:1;fill-rule:nonzero;stroke:none;stroke-width:0.1"
         d="m 70,265 h -2 v 22 h 2 v -22" />
      <path
         id="path152"
         style="fill:#464a4d;fill-opacity:1;fill-rule:nonzero;stroke:none;stroke-width:0.1"
         d="M 80,275 H 58 v 2 h 22 v -2" />
      <path
         id="path154"
         style="fill:#464a4d;fill-opacity:1;fill-rule:nonzero;stroke:none;stroke-width:0.1"
         d="M 81,258 H 57 v 2 h 24 v -2" />
      <path
         id="path156"
         style="fill:#464a4d;fill-opacity:1;fill-rule:nonzero;stroke:none;stroke-width:0.1"
         d="M 81,254 H 57 v 2 h 24 v -2" />
      <rect
         style="opacity:0.03699999;fill:#fdfdfd;fill-opacity:0.96470588;stroke:#000000;stroke-width:0.25725651;stroke-miterlimit:4;stroke-dasharray:none;stroke-opacity:1"
         id="rect13895-36-2"
         width="74.638512"
         height="74.638512"
         x="42.172283"
         y="-309.01416"
         rx="0"
         transform="scale(1,-1)" />
    </g>
  </g>
</svg>
