<?xml version="1.0" encoding="UTF-8" standalone="no"?>
<svg
   xmlns:dc="http://purl.org/dc/elements/1.1/"
   xmlns:cc="http://creativecommons.org/ns#"
   xmlns:rdf="http://www.w3.org/1999/02/22-rdf-syntax-ns#"
   xmlns:svg="http://www.w3.org/2000/svg"
   xmlns="http://www.w3.org/2000/svg"
   id="svg5446"
   version="1.1"
   viewBox="0 0 26.458333 26.458334"
   height="100"
   width="100">
  <defs
     id="defs5440" />
  <metadata
     id="metadata5443">
    <rdf:RDF>
      <cc:Work
         rdf:about="">
        <dc:format>image/svg+xml</dc:format>
        <dc:type
           rdf:resource="http://purl.org/dc/dcmitype/StillImage" />
        <dc:title></dc:title>
      </cc:Work>
    </rdf:RDF>
  </metadata>
  <g
     transform="translate(0,-270.54165)"
     id="layer1">
    <g
       transform="matrix(1.0050579,0,0,1.0050579,-13.296845,3.6009027)"
       id="g6046">
      <rect
         style="opacity:0.03699999;fill:#fdfdfd;fill-opacity:0.96470588;stroke:#000000;stroke-width:0.09075437;stroke-miterlimit:4;stroke-dasharray:none;stroke-opacity:1"
         id="rect13895"
         width="26.330807"
         height="26.330807"
         x="13.292926"
         y="265.69174"
         rx="0" />
      <path
         id="path158"
         style="fill:#ffffff;fill-opacity:1;fill-rule:nonzero;stroke:none;stroke-width:0.03527778"
         d="m 22.154092,289.61493 -1.411111,-4.58611 -4.586111,-1.41111 1.411111,-1.41111 h 3.527778 c 0,0 11.641666,-11.64167 12.347222,-12.34722 0.705555,-0.70556 3.175,-0.70556 3.175,-0.70556 0,0 0,2.46945 -0.705556,3.175 -1.234722,1.23473 -12.347222,12.34722 -12.347222,12.34722 v 3.52778 l -1.411111,1.41111" />
      <path
         id="path160"
         style="fill:#ffffff;fill-opacity:1;fill-rule:nonzero;stroke:none;stroke-width:0.03527778"
         d="m 32.737425,280.44271 c 0,0 0.352778,-0.35278 0.705556,-0.70555 0.705555,-0.70556 1.411111,0 1.411111,0 0,0 0.352778,0.70555 -0.352778,1.41111 -0.352778,0.35277 -1.763889,1.76389 -1.763889,1.76389 v -2.46945" />
      <path
         id="path162"
         style="fill:#ffffff;fill-opacity:1;fill-rule:nonzero;stroke:none;stroke-width:0.03527778"
         d="m 22.859648,273.03438 c 0,0 1.763889,-1.76389 2.116666,-2.11667 0.705556,-0.70555 1.411112,0 1.411112,0 0,0 0.352777,0.70556 -0.352778,1.41111 -0.352778,0.35278 -0.705556,0.70556 -0.705556,0.70556 h -2.469444" />
      <path
         id="path164"
         style="fill:#7fd4d3;fill-opacity:1;fill-rule:nonzero;stroke:none;stroke-width:0.03527778"
         d="m 32.737425,275.50382 v 12.34722 l -1.763889,1.76389 -2.116666,-10.23055 3.880555,-3.88056" />
      <path
         id="path166"
         style="fill:#464a4d;fill-opacity:1;fill-rule:nonzero;stroke:none;stroke-width:0.03527778"
         d="m 30.973536,289.96771 c -0.03387,0 -0.06773,-0.005 -0.100894,-0.0148 -0.12453,-0.037 -0.218017,-0.13935 -0.244475,-0.2667 l -2.116667,-10.23055 0.690739,-0.14253 1.984375,9.58991 1.198034,-1.19803 v -12.20117 h 0.705555 v 12.34722 c 0,0.0938 -0.03704,0.18345 -0.103364,0.24942 l -1.763889,1.76389 c -0.06703,0.067 -0.156986,0.10336 -0.249414,0.10336" />
      <path
         id="path168"
         style="fill:#7fd4d3;fill-opacity:1;fill-rule:nonzero;stroke:none;stroke-width:0.03527778"
         d="M 30.267981,273.03438 H 17.920759 l -1.763889,1.76389 10.230556,2.11666 3.880555,-3.88055" />
      <path
         id="path170"
         style="fill:#464a4d;fill-opacity:1;fill-rule:nonzero;stroke:none;stroke-width:0.03527778"
         d="m 26.316164,277.2603 -10.230555,-2.11666 c -0.127,-0.0265 -0.229658,-0.11995 -0.2667,-0.24448 -0.03704,-0.12382 -0.0032,-0.25858 0.08855,-0.35031 l 1.763889,-1.76388 c 0.06597,-0.0663 0.155575,-0.10337 0.249414,-0.10337 h 12.347222 v 0.70556 H 18.066812 l -1.198033,1.19803 9.589911,1.98437 -0.142523,0.69074" />
      <path
         id="path172"
         style="fill:#464a4d;fill-opacity:1;fill-rule:nonzero;stroke:none;stroke-width:0.03527778"
         d="m 16.820798,283.45261 4.0259,1.23896 c 0.111478,0.0346 0.198967,0.12206 0.233539,0.23354 l 1.238955,4.0259 0.893234,-0.89324 v -3.38173 c 0,-0.0938 0.03704,-0.18344 0.103364,-0.24941 l 12.347221,-12.34722 c 0.383823,-0.38382 0.557036,-1.65241 0.594431,-2.56505 -0.912636,0.0374 -2.181225,0.21061 -2.565047,0.59443 l -12.347222,12.34722 c -0.06597,0.0663 -0.155575,0.10337 -0.249414,0.10337 h -3.381728 z m 5.333294,6.5151 c -0.02822,0 -0.0568,-0.004 -0.08502,-0.0102 -0.119944,-0.03 -0.2159,-0.12065 -0.252236,-0.23883 l -1.356078,-4.40761 -4.407605,-1.35607 c -0.118181,-0.0363 -0.208845,-0.13229 -0.238831,-0.25224 -0.02963,-0.1203 0.0056,-0.24694 0.09313,-0.33443 l 1.411111,-1.41111 c 0.06597,-0.0663 0.155575,-0.10337 0.249414,-0.10337 h 3.381728 L 33.193567,269.61 c 0.785989,-0.78635 3.156655,-0.80892 3.424414,-0.80892 0.195086,0 0.352778,0.15769 0.352778,0.35277 0,0.26776 -0.02258,2.63843 -0.80892,3.42442 l -12.243858,12.24385 v 3.38173 c 0,0.0938 -0.03704,0.18345 -0.103364,0.24942 l -1.411111,1.41111 c -0.06668,0.0667 -0.156986,0.10336 -0.249414,0.10336" />
      <path
         id="path174"
         style="fill:#464a4d;fill-opacity:1;fill-rule:nonzero;stroke:none;stroke-width:0.03527778"
         d="m 19.228506,287.04213 -0.498827,-0.49883 3.527777,-3.52778 0.498828,0.49883 -3.527778,3.52778" />
      <path
         id="path176"
         style="fill:#464a4d;fill-opacity:1;fill-rule:nonzero;stroke:none;stroke-width:0.03527778"
         d="m 26.636839,289.51157 -0.498827,-0.49883 2.469444,-2.46944 0.498828,0.49883 -2.469445,2.46944" />
      <path
         id="path178"
         style="fill:#464a4d;fill-opacity:1;fill-rule:nonzero;stroke:none;stroke-width:0.03527778"
         d="m 26.284062,287.3949 -0.498828,-0.49882 2.469444,-2.46945 0.498828,0.49883 -2.469444,2.46944" />
      <path
         id="path180"
         style="fill:#464a4d;fill-opacity:1;fill-rule:nonzero;stroke:none;stroke-width:0.03527778"
         d="m 18.875729,279.98657 -0.498828,-0.49883 2.469444,-2.46944 0.498828,0.49883 -2.469444,2.46944" />
      <path
         id="path182"
         style="fill:#464a4d;fill-opacity:1;fill-rule:nonzero;stroke:none;stroke-width:0.03527778"
         d="m 16.759062,279.63379 -0.498828,-0.49883 2.469445,-2.46944 0.498827,0.49883 -2.469444,2.46944" />
      <path
         id="path184"
         style="fill:#464a4d;fill-opacity:1;fill-rule:nonzero;stroke:none;stroke-width:0.03527778"
         d="m 32.986839,283.16157 -0.498828,-0.49883 1.763889,-1.76389 c 0.422628,-0.42262 0.348897,-0.81844 0.305506,-0.95426 -0.149225,-0.12383 -0.496711,-0.32667 -0.865011,0.042 l -0.705556,0.70556 -0.498828,-0.49883 0.705556,-0.70556 c 0.700617,-0.70061 1.525764,-0.38417 1.909939,0 0.02681,0.0268 0.04939,0.0579 0.06632,0.0917 0.0187,0.0381 0.456142,0.94298 -0.4191,1.81822 l -1.763889,1.76389" />
      <path
         id="path186"
         style="fill:#464a4d;fill-opacity:1;fill-rule:nonzero;stroke:none;stroke-width:0.03527778"
         d="m 25.578506,273.28379 -0.498828,-0.49882 0.705556,-0.70556 c 0.422628,-0.42263 0.348897,-0.81844 0.305505,-0.95426 -0.149225,-0.12383 -0.496358,-0.32632 -0.865011,0.042 l -2.116666,2.11666 -0.498828,-0.49882 2.116667,-2.11667 c 0.700263,-0.70097 1.525411,-0.38418 1.909938,0 0.02681,0.0268 0.04939,0.0579 0.06632,0.0917 0.0187,0.0381 0.456141,0.94298 -0.4191,1.81822 l -0.705556,0.70555" />
      <path
         id="path188"
         style="fill:#464a4d;fill-opacity:1;fill-rule:nonzero;stroke:none;stroke-width:0.03527778"
         d="m 34.957456,271.5199 -0.705556,-0.70555 0.498828,-0.49883 0.705556,0.70556 -0.498828,0.49882" />
    </g>
  </g>
</svg>
