<?xml version="1.0" encoding="UTF-8" standalone="no"?>
<!-- Created with Inkscape (http://www.inkscape.org/) -->

<svg
   xmlns:dc="http://purl.org/dc/elements/1.1/"
   xmlns:cc="http://creativecommons.org/ns#"
   xmlns:rdf="http://www.w3.org/1999/02/22-rdf-syntax-ns#"
   xmlns:svg="http://www.w3.org/2000/svg"
   xmlns="http://www.w3.org/2000/svg"
   xmlns:sodipodi="http://sodipodi.sourceforge.net/DTD/sodipodi-0.dtd"
   xmlns:inkscape="http://www.inkscape.org/namespaces/inkscape"
   width="100"
   height="100"
   viewBox="0 0 26.458333 26.458334"
   version="1.1"
   id="svg5446"
   inkscape:version="0.92.1 r15371"
   sodipodi:docname="hotel.svg">
  <defs
     id="defs5440" />
  <sodipodi:namedview
     id="base"
     pagecolor="#ffffff"
     bordercolor="#666666"
     borderopacity="1.0"
     inkscape:pageopacity="0.0"
     inkscape:pageshadow="2"
     inkscape:zoom="0.9899495"
     inkscape:cx="-211.28568"
     inkscape:cy="172.38709"
     inkscape:document-units="mm"
     inkscape:current-layer="layer1"
     showgrid="false"
     units="px"
     borderlayer="true"
     inkscape:window-width="1920"
     inkscape:window-height="1020"
     inkscape:window-x="0"
     inkscape:window-y="27"
     inkscape:window-maximized="1" />
  <metadata
     id="metadata5443">
    <rdf:RDF>
      <cc:Work
         rdf:about="">
        <dc:format>image/svg+xml</dc:format>
        <dc:type
           rdf:resource="http://purl.org/dc/dcmitype/StillImage" />
        <dc:title></dc:title>
      </cc:Work>
    </rdf:RDF>
  </metadata>
  <g
     inkscape:label="Layer 1"
     inkscape:groupmode="layer"
     id="layer1"
     transform="translate(0,-270.54165)">
    <g
       transform="matrix(0.34910281,0,0,-0.34910281,-84.369282,309.26638)"
       id="g5347"
       inkscape:export-filename="/home/sud/Coding/TG/WebContent/img/hotelS.png"
       inkscape:export-xdpi="54.719997"
       inkscape:export-ydpi="54.719997">
      <path
         d="m 254,73 h 52 V 88 H 254 V 73"
         style="fill:#0ab596;fill-opacity:0.61943323;fill-rule:nonzero;stroke:none;stroke-width:0.1"
         id="path322"
         inkscape:connector-curvature="0" />
      <path
         d="m 299,95 h -38 c -3.866,0 -7,-3.134 -7,-7 h 52 c 0,3.866 -3.134,7 -7,7"
         style="fill:#0ab596;fill-opacity:1;fill-rule:nonzero;stroke:none;stroke-width:0.1"
         id="path324"
         inkscape:connector-curvature="0" />
      <path
         d="M 311,66 V 47 h -4 v 6 h -54 v -6 h -4 v 19 c 0,3.866 3.134,7 7,7 h 48 c 3.866,0 7,-3.134 7,-7"
         style="fill:#0ab596;fill-opacity:0.61943323;fill-rule:nonzero;stroke:none;stroke-width:0.1"
         id="path326"
         inkscape:connector-curvature="0" />
      <path
         d="m 308,48 h 2 v 18 c 0,3.309 -2.691,6 -6,6 h -48 c -3.309,0 -6,-2.691 -6,-6 V 48 h 2 v 6 h 56 z m 4,-2 h -6 v 6 h -52 v -6 h -6 v 20 c 0,4.4109 3.589,8 8,8 h 48 c 4.411,0 8,-3.5891 8,-8 V 46"
         style="fill:#464a4d;fill-opacity:1;fill-rule:nonzero;stroke:none;stroke-width:0.1"
         id="path328"
         inkscape:connector-curvature="0" />
      <path
         d="m 307,73 h -2 v 15 c 0,3.309 -2.691,6 -6,6 h -38 c -3.309,0 -6,-2.691 -6,-6 V 73 h -2 v 15 c 0,4.4109 3.589,8 8,8 h 38 c 4.411,0 8,-3.5891 8,-8 V 73"
         style="fill:#464a4d;fill-opacity:1;fill-rule:nonzero;stroke:none;stroke-width:0.1"
         id="path330"
         inkscape:connector-curvature="0" />
      <path
         d="m 258,74 v 6 c 0,2.7621 2.238,5 5,5 h 10 c 2.762,0 5,-2.2379 5,-5 v -6 h -20"
         style="fill:#ffffff;fill-opacity:1;fill-rule:nonzero;stroke:none;stroke-width:0.1"
         id="path332"
         inkscape:connector-curvature="0" />
      <path
         d="m 282,74 v 6 c 0,2.7621 2.238,5 5,5 h 10 c 2.762,0 5,-2.2379 5,-5 v -6 h -20"
         style="fill:#ffffff;fill-opacity:1;fill-rule:nonzero;stroke:none;stroke-width:0.1"
         id="path334"
         inkscape:connector-curvature="0" />
      <path
         d="m 279,74 h -2 v 6 c 0,2.2059 -1.794,4 -4,4 h -10 c -2.206,0 -4,-1.7941 -4,-4 v -6 h -2 v 6 c 0,3.309 2.691,6 6,6 h 10 c 3.309,0 6,-2.691 6,-6 v -6"
         style="fill:#464a4d;fill-opacity:1;fill-rule:nonzero;stroke:none;stroke-width:0.1"
         id="path336"
         inkscape:connector-curvature="0" />
      <path
         d="m 303,74 h -2 v 6 c 0,2.2059 -1.794,4 -4,4 h -10 c -2.206,0 -4,-1.7941 -4,-4 v -6 h -2 v 6 c 0,3.309 2.691,6 6,6 h 10 c 3.309,0 6,-2.691 6,-6 v -6"
         style="fill:#464a4d;fill-opacity:1;fill-rule:nonzero;stroke:none;stroke-width:0.1"
         id="path338"
         inkscape:connector-curvature="0" />
      <path
         d="m 308,56 h -56 v 2 h 56 v -2"
         style="fill:#464a4d;fill-opacity:1;fill-rule:nonzero;stroke:none;stroke-width:0.1"
         id="path340"
         inkscape:connector-curvature="0" />
    </g>
  </g>
</svg>
